<?xml version="1.0" standalone="no"?>
<svg xmlns="http://www.w3.org/2000/svg" viewBox="0 0 104 69" width="104" height="69"><g fill="#105894" color="#105894" transform="translate(35.987 0) scale(0.7692308) "><svg width="41.0" height="52.0" x="0.0" y="0.0" viewBox="0 0 41 52"><path fill="currentColor" fill-rule="evenodd" d="M20.07.578C9.017.578 0 9.594 0 20.648c0 5.528 2.254 10.546 5.584 14.324l14.184-14.62 14.487 14.62c3.633-3.778 5.887-8.796 5.887-14.323C40.142 9.594 31.125.578 20.07.578m-6.639 43.446h5.978v-5.978h-5.978v5.978zm7.299 0h5.979v-5.978h-5.98v5.978zm-7.299 7.461h5.978v-5.978h-5.978v5.978zm7.299 0h5.979v-5.978h-5.98v5.978z"></path></svg></g><path fill="#0075d6" fill-rule="nonzero" d="M2.88 20.02L0 0L2.91 0L4.25 12.09L4.41 14.92L4.70 14.92L4.98 11.74L7.14 0L9.56 0L11.63 11.74L11.86 14.92L12.16 14.92L12.30 12.09L13.54 0L16.45 0L13.65 20.02L10.57 20.02L8.92 10.39L8.40 6.21L8.17 6.21L7.66 10.39L5.93 20.02L2.88 20.02ZM20.65 20.19L20.65 20.19Q19.90 20.19 19.32 19.89Q18.74 19.59 18.34 19.08Q17.94 18.56 17.74 17.85Q17.53 17.14 17.53 16.31L17.53 16.31Q17.53 15.32 17.78 14.54Q18.02 13.77 18.50 13.15Q18.97 12.53 19.68 12.02Q20.38 11.51 21.30 11.05L21.30 11.05Q21.75 10.83 22.31 10.60Q22.86 10.37 23.30 10.21L23.30 10.21L23.30 8.07Q23.30 7.61 23.26 7.20Q23.23 6.80 23.09 6.50Q22.96 6.20 22.69 6.03Q22.42 5.86 21.95 5.86L21.95 5.86Q21.63 5.86 21.33 5.98Q21.04 6.09 20.81 6.38Q20.58 6.66 20.44 7.13Q20.31 7.59 20.31 8.29L20.31 8.29L20.31 8.99L18.05 8.99Q17.94 8.53 17.89 8.15Q17.84 7.77 17.84 7.39L17.84 7.39Q17.84 6.49 18.15 5.80Q18.46 5.11 19.01 4.64Q19.57 4.17 20.34 3.93Q21.12 3.69 22.04 3.69L22.04 3.69Q23.25 3.69 24.05 3.96Q24.84 4.22 25.32 4.75Q25.79 5.27 25.99 6.07Q26.18 6.87 26.18 7.93L26.18 7.93L26.18 20.02L23.98 20.02L23.77 18.63Q23.29 19.32 22.48 19.76Q21.68 20.19 20.65 20.19ZM21.96 17.91L21.96 17.91Q22.34 17.91 22.69 17.71Q23.05 17.52 23.30 17.24L23.30 17.24L23.30 12.19Q23.06 12.28 22.77 12.41Q22.48 12.54 22.14 12.75L22.14 12.75Q21.82 12.95 21.52 13.23Q21.21 13.51 20.97 13.90Q20.73 14.29 20.58 14.77Q20.44 15.26 20.44 15.86L20.44 15.86Q20.44 16.78 20.80 17.34Q21.16 17.91 21.96 17.91ZM29.25 20.02L29.25 3.88L31.42 3.88L31.68 5.52Q32.17 4.61 32.81 4.15Q33.45 3.69 34.11 3.69L34.11 3.69Q35.39 3.69 36 4.48Q36.61 5.26 36.61 6.83L36.61 6.83Q36.61 7.03 36.58 7.31Q36.55 7.58 36.50 7.88Q36.45 8.18 36.37 8.48Q36.29 8.78 36.21 9.02L36.21 9.02L34.15 9.02L34.15 7.52Q34.15 7.03 34.08 6.71Q34.02 6.40 33.91 6.21Q33.81 6.01 33.67 5.94Q33.53 5.86 33.36 5.86L33.36 5.86Q33.01 5.86 32.71 6.09Q32.41 6.32 32.21 6.73L32.21 6.73L32.21 20.02L29.25 20.02ZM42.38 20.19L42.38 20.19Q41.33 20.19 40.53 19.80Q39.73 19.42 39.18 18.60Q38.63 17.78 38.34 16.49Q38.06 15.21 38.06 13.41L38.06 13.41L38.06 10.36Q38.06 8.82 38.29 7.73Q38.52 6.63 38.89 5.89Q39.26 5.14 39.74 4.71Q40.23 4.28 40.75 4.05Q41.26 3.82 41.77 3.76Q42.28 3.69 42.71 3.69L42.71 3.69Q43.51 3.69 44.25 3.93Q44.99 4.17 45.55 4.75Q46.11 5.33 46.45 6.30Q46.78 7.28 46.78 8.73L46.78 8.73Q46.78 9.22 46.75 9.73Q46.72 10.23 46.68 10.72Q46.63 11.20 46.55 11.66Q46.48 12.12 46.39 12.50L46.39 12.50L41.04 12.50L41.04 14.14Q41.04 15.20 41.12 15.92Q41.20 16.64 41.40 17.08Q41.59 17.52 41.92 17.71Q42.26 17.91 42.76 17.91L42.76 17.91Q43.03 17.91 43.29 17.79Q43.55 17.68 43.74 17.43Q43.93 17.17 44.05 16.74Q44.17 16.31 44.17 15.68L44.17 15.68L44.17 15.18L46.64 15.18L46.64 15.80Q46.64 18.09 45.54 19.14Q44.45 20.19 42.38 20.19ZM41.04 10.51L44.02 10.51Q44.03 10.38 44.04 10.17Q44.05 9.95 44.06 9.71Q44.06 9.48 44.06 9.25Q44.06 9.02 44.06 8.86L44.06 8.86Q44.06 7.27 43.69 6.56Q43.31 5.86 42.57 5.86L42.57 5.86Q42.19 5.86 41.89 6.04Q41.60 6.22 41.41 6.65Q41.23 7.08 41.13 7.78Q41.04 8.48 41.04 9.53L41.04 9.53L41.04 10.51ZM49.48 20.02L49.48 0L52.51 0L52.51 8.38L56.11 8.38L56.11 0L59.14 0L59.14 20.02L56.11 20.02L56.11 10.77L52.51 10.77L52.51 20.02L49.48 20.02ZM66.47 20.19L66.47 20.19Q65.95 20.19 65.42 20.11Q64.89 20.03 64.39 19.77Q63.89 19.51 63.45 19.03Q63.01 18.55 62.68 17.77Q62.36 16.98 62.17 15.83Q61.98 14.68 61.98 13.09L61.98 13.09L61.98 10.56Q61.98 8.99 62.17 7.87Q62.37 6.75 62.70 5.99Q63.04 5.23 63.48 4.78Q63.93 4.32 64.42 4.08Q64.92 3.84 65.45 3.77Q65.98 3.69 66.48 3.69L66.48 3.69Q66.96 3.69 67.48 3.76Q67.99 3.83 68.48 4.06Q68.98 4.29 69.42 4.74Q69.86 5.19 70.19 5.95Q70.52 6.71 70.72 7.85Q70.91 8.98 70.91 10.56L70.91 10.56L70.91 13.09Q70.91 14.66 70.71 15.80Q70.51 16.93 70.17 17.72Q69.83 18.50 69.39 18.99Q68.94 19.48 68.45 19.75Q67.96 20.02 67.45 20.10Q66.94 20.19 66.47 20.19ZM66.49 17.91L66.49 17.91Q66.89 17.91 67.17 17.70Q67.44 17.50 67.61 17.03Q67.78 16.56 67.86 15.79Q67.93 15.02 67.93 13.89L67.93 13.89L67.93 9.91Q67.93 8.78 67.86 8.00Q67.78 7.23 67.61 6.76Q67.44 6.28 67.17 6.07Q66.89 5.86 66.49 5.86L66.49 5.86Q66.07 5.86 65.78 6.07Q65.50 6.28 65.31 6.76Q65.12 7.23 65.04 8.00Q64.96 8.78 64.96 9.91L64.96 9.91L64.96 13.89Q64.96 15.02 65.04 15.79Q65.12 16.56 65.31 17.03Q65.50 17.50 65.78 17.70Q66.07 17.91 66.49 17.91ZM73.56 16.24L73.56 3.88L76.52 3.88L76.52 16.01Q76.52 17.07 76.85 17.49Q77.18 17.91 77.81 17.91L77.81 17.91Q78.26 17.91 78.68 17.66Q79.10 17.41 79.44 16.96L79.44 16.96L79.44 3.88L82.41 3.88L82.41 20.02L80.14 20.02L79.85 18.29L79.84 18.29Q79.49 18.84 79.10 19.21Q78.70 19.58 78.28 19.80Q77.85 20.02 77.40 20.11Q76.96 20.20 76.51 20.20L76.51 20.20Q75.09 20.20 74.33 19.22Q73.56 18.23 73.56 16.24L73.56 16.24ZM84.87 16.64L84.87 16.64Q84.87 16.11 84.97 15.62Q85.07 15.13 85.16 14.84L85.16 14.84L87.25 14.84Q87.25 15.71 87.33 16.31Q87.42 16.90 87.62 17.25Q87.82 17.60 88.15 17.75Q88.49 17.91 88.97 17.91L88.97 17.91Q89.64 17.91 89.94 17.53Q90.25 17.16 90.25 16.66L90.25 16.66Q90.25 16.41 90.18 16.17Q90.11 15.94 89.98 15.70Q89.85 15.46 89.66 15.21Q89.47 14.96 89.24 14.67L89.24 14.67L87.07 12.12Q86.65 11.59 86.26 11.04Q85.86 10.50 85.56 9.92Q85.27 9.34 85.08 8.71Q84.90 8.07 84.90 7.37L84.90 7.37Q84.90 6.43 85.22 5.74Q85.55 5.05 86.09 4.59Q86.64 4.14 87.35 3.91Q88.07 3.69 88.86 3.69L88.86 3.69Q89.74 3.69 90.45 3.90Q91.15 4.11 91.65 4.54Q92.16 4.96 92.43 5.58Q92.70 6.21 92.70 7.04L92.70 7.04Q92.70 7.61 92.60 8.13Q92.50 8.66 92.40 9.04L92.40 9.04L90.35 9.04Q90.34 8.24 90.28 7.64Q90.22 7.04 90.06 6.65Q89.91 6.26 89.63 6.06Q89.36 5.86 88.91 5.86L88.91 5.86Q88.52 5.86 88.27 5.98Q88.01 6.11 87.85 6.30Q87.69 6.50 87.63 6.75Q87.56 7.00 87.56 7.25L87.56 7.25Q87.56 7.82 87.83 8.30Q88.10 8.78 88.55 9.34L88.55 9.34L90.91 12.12Q91.17 12.43 91.51 12.88Q91.85 13.34 92.16 13.88Q92.46 14.43 92.67 15.07Q92.88 15.71 92.88 16.42L92.88 16.42Q92.88 17.27 92.61 17.97Q92.34 18.67 91.82 19.16Q91.29 19.65 90.52 19.92Q89.75 20.19 88.77 20.19L88.77 20.19Q87.96 20.19 87.25 20.01Q86.53 19.83 86.00 19.41Q85.48 19.00 85.17 18.32Q84.87 17.64 84.87 16.64ZM99.11 20.19L99.11 20.19Q98.06 20.19 97.26 19.80Q96.46 19.42 95.91 18.60Q95.36 17.78 95.07 16.49Q94.79 15.21 94.79 13.41L94.79 13.41L94.79 10.36Q94.79 8.82 95.02 7.73Q95.25 6.63 95.62 5.89Q95.99 5.14 96.47 4.71Q96.96 4.28 97.48 4.05Q97.99 3.82 98.50 3.76Q99.01 3.69 99.45 3.69L99.45 3.69Q100.24 3.69 100.98 3.93Q101.72 4.17 102.28 4.75Q102.84 5.33 103.18 6.30Q103.51 7.28 103.51 8.73L103.51 8.73Q103.51 9.22 103.48 9.73Q103.45 10.23 103.41 10.72Q103.36 11.20 103.28 11.66Q103.21 12.12 103.13 12.50L103.13 12.50L97.77 12.50L97.77 14.14Q97.77 15.20 97.85 15.92Q97.93 16.64 98.13 17.08Q98.32 17.52 98.65 17.71Q98.99 17.91 99.49 17.91L99.49 17.91Q99.76 17.91 100.02 17.79Q100.28 17.68 100.47 17.43Q100.66 17.17 100.78 16.74Q100.90 16.31 100.90 15.68L100.90 15.68L100.90 15.18L103.37 15.18L103.37 15.80Q103.37 18.09 102.28 19.14Q101.18 20.19 99.11 20.19ZM97.77 10.51L100.75 10.51Q100.76 10.38 100.77 10.17Q100.78 9.95 100.79 9.71Q100.79 9.48 100.79 9.25Q100.79 9.02 100.79 8.86L100.79 8.86Q100.79 7.27 100.42 6.56Q100.04 5.86 99.30 5.86L99.30 5.86Q98.92 5.86 98.63 6.04Q98.33 6.22 98.14 6.65Q97.96 7.08 97.86 7.78Q97.77 8.48 97.77 9.53L97.77 9.53L97.77 10.51Z" transform="translate(0, 48)"></path></svg>